<?xml version="1.0" encoding="utf-8"?>
<!-- Generator: Adobe Illustrator 14.0.0, SVG Export Plug-In . SVG Version: 6.00 Build 43363)  -->
<!DOCTYPE svg PUBLIC "-//W3C//DTD SVG 1.0//EN" "http://www.w3.org/TR/2001/REC-SVG-20010904/DTD/svg10.dtd">
<svg version="1.0" id="Layer_1" xmlns="http://www.w3.org/2000/svg" xmlns:xlink="http://www.w3.org/1999/xlink" x="0px" y="0px"
	 width="100.801px" height="68.4px" viewBox="0 0 100.801 68.4" enable-background="new 0 0 100.801 68.4" xml:space="preserve">
<g>
	<polygon points="10.438,68.119 10.438,35.098 23.156,25.507 23.156,4.122 30.221,4.122 30.221,19.375 49.534,3.808 88.159,35.413 
		100.876,35.413 49.063,0.034 34.461,9.782 34.461,1.292 18.288,1.292 18.288,20.632 0.076,34.781 0.076,68.435 	"/>
	<path d="M40.585,35.098c0,0-0.631-9.015,3.061-12.097c6.944-5.795,14.828,2.788,14.828,2.788S50.447,23,46.503,25.716
		c-1.741,1.198-1.68,9.381-1.68,9.381H40.585z"/>
	<g>
		<path fill="#C00000" d="M31.319,66.735c-1.079-2.69-2.113-5.244-3.103-7.666l-2.703-6.512c-2.12-5.11-3.423-8.156-3.912-9.136
			s-0.86-1.54-1.114-1.681c-0.38-0.205-1.167-0.32-2.36-0.348v-1.69c3.045,0.089,4.898,0.134,5.559,0.134l6.833-0.134v1.69
			c-1.066,0.015-1.84,0.079-2.322,0.192c-0.279,0.064-0.473,0.159-0.581,0.28s-0.162,0.278-0.162,0.47
			c0,0.384,0.418,1.601,1.256,3.649c0.482,1.178,0.739,1.816,0.771,1.91c0.032,0.098,0.073,0.217,0.124,0.356l4.812,11.855
			l4.229-10.568c0.101-0.243,0.552-1.452,1.352-3.632c0.571-1.535,0.92-2.566,1.047-3.091c0.025-0.153,0.038-0.308,0.038-0.462
			c0-0.217-0.035-0.381-0.104-0.488c-0.07-0.109-0.162-0.19-0.276-0.241c-0.089-0.039-0.317-0.07-0.685-0.096
			c-0.825-0.076-1.522-0.121-2.094-0.136v-1.69l4.835,0.134l4.112-0.134v1.69c-1.231,0.116-1.948,0.251-2.151,0.406
			c-0.342,0.268-1.06,1.721-2.151,4.359l-1.352,3.189l-2.57,6.187c-2.183,5.276-3.662,9.011-4.436,11.2H31.319z"/>
		<path fill="#C00000" d="M49.061,41.278v-1.575c0.292,0,1.307,0.028,3.045,0.089c0.851,0.031,2.057,0.045,3.617,0.045
			c1.332,0,2.475-0.027,3.426-0.086c1.574-0.07,2.875-0.106,3.903-0.106c1.991,0,3.483,0.146,4.474,0.433
			c0.99,0.29,1.834,0.889,2.531,1.801s1.047,2.021,1.047,3.33c0,1.554-0.477,2.966-1.428,4.237
			c-0.951,1.271-2.418,2.278-4.398,3.022c0.318,0.572,0.68,1.158,1.086,1.756c0.406,0.597,0.645,0.961,0.714,1.086
			c0.069,0.129,0.144,0.249,0.22,0.363l2.949,4.446c0.787,1.184,1.213,1.819,1.275,1.909c0.953,1.271,1.535,2.022,1.752,2.25
			c0.217,0.23,0.426,0.389,0.628,0.479c0.204,0.088,0.604,0.141,1.2,0.152v1.692c-1.955-0.051-3.37-0.078-4.246-0.078
			c-1.015,0-2.023,0.027-3.026,0.078c-0.063-0.282-0.216-0.647-0.457-1.097l-4.074-6.788c-1.167-1.947-2.156-3.479-2.97-4.595
			c-0.405-0.563-0.799-0.986-1.18-1.268l0.209-0.636c1.524,0.052,2.672-0.105,3.445-0.472c0.775-0.365,1.429-1.021,1.962-1.965
			c0.532-0.943,0.8-2,0.8-3.168c0-1.181-0.279-2.164-0.838-2.947c-0.559-0.784-1.25-1.329-2.074-1.637
			c-0.534-0.193-1.485-0.289-2.855-0.289c-0.609,0-1.213,0.053-1.809,0.152c-0.039,0.463-0.076,1.501-0.115,3.116
			c-0.076,3.632-0.114,6.056-0.114,7.273c0,1.925,0.019,3.965,0.058,6.12c0.051,2.645,0.089,4.146,0.114,4.506
			c0.038,0.717,0.107,1.185,0.21,1.402c0.05,0.104,0.133,0.197,0.247,0.28s0.298,0.15,0.552,0.202
			c0.254,0.051,0.99,0.09,2.208,0.115v1.692c-2.17-0.09-4.365-0.136-6.585-0.136c-1.98,0-3.815,0.046-5.502,0.136v-1.692
			c1.446-0.051,2.303-0.121,2.57-0.213c0.152-0.037,0.263-0.101,0.333-0.191c0.069-0.09,0.124-0.268,0.161-0.539
			c0.089-0.5,0.153-1.257,0.19-2.27l0.153-5.62v-7.138l-0.096-4.061c-0.025-1.604-0.101-2.566-0.227-2.887
			c-0.064-0.141-0.158-0.25-0.284-0.327C51.56,41.511,50.625,41.382,49.061,41.278z"/>
		<path fill="#C00000" d="M76.873,41.298v-1.595l5.634,0.134l8.51-0.173c1.662,0,2.977,0.173,3.941,0.52
			c0.963,0.347,1.791,0.974,2.484,1.884c0.69,0.911,1.036,2.089,1.036,3.538c0,1.45-0.333,2.794-0.999,4.037
			s-1.707,2.265-3.121,3.067c-1.416,0.801-2.93,1.201-4.541,1.201c-0.406,0-0.803-0.021-1.189-0.066
			c-0.388-0.045-0.771-0.113-1.152-0.201c-0.127-0.361-0.355-0.816-0.686-1.366l0.4-0.423c0.279,0.088,0.543,0.157,0.789,0.202
			c0.249,0.044,0.475,0.066,0.677,0.066c1.23,0,2.247-0.438,3.046-1.316s1.199-2.155,1.199-3.836c0-1.757-0.418-3.077-1.257-3.961
			c-0.837-0.884-2.005-1.327-3.503-1.327c-0.711,0-1.503,0.084-2.379,0.25c-0.063,0.796-0.102,1.961-0.113,3.5L85.591,49.2v7.287
			c0,1.795,0.031,3.653,0.096,5.576c0.038,1.115,0.107,1.821,0.209,2.114c0.051,0.13,0.135,0.241,0.256,0.337
			c0.119,0.097,0.337,0.17,0.652,0.221l2.557,0.174v1.692c-3.248-0.09-5.691-0.136-7.329-0.136c-1.802,0-3.521,0.046-5.158,0.136
			v-1.692c1.408-0.025,2.297-0.135,2.665-0.327c0.113-0.063,0.203-0.159,0.267-0.288c0.089-0.18,0.158-0.646,0.21-1.402
			c0.139-2.052,0.209-4.334,0.209-6.846v-6.787l-0.096-3.616c-0.025-1.549-0.053-2.517-0.084-2.902
			c-0.032-0.384-0.093-0.659-0.182-0.827c-0.05-0.102-0.135-0.192-0.256-0.269c-0.119-0.077-0.336-0.146-0.652-0.211L76.873,41.298z
			"/>
	</g>
</g>
</svg>
